<?xml version="1.0" standalone="no"?><!DOCTYPE svg PUBLIC "-//W3C//DTD SVG 1.1//EN" "http://www.w3.org/Graphics/SVG/1.1/DTD/svg11.dtd"><svg t="1516189113120" class="icon" style="" viewBox="0 0 1024 1024" version="1.1" xmlns="http://www.w3.org/2000/svg" p-id="10885" xmlns:xlink="http://www.w3.org/1999/xlink" width="200" height="200"><defs><style type="text/css"></style></defs><path d="M698.796 603.136l-0.126 0.25 0.504-0.376-0.126-0.25z" p-id="10886"></path><path d="M834.054 747.572c-15.588 0-28.284 12.696-28.284 28.284v101.948c0 44.248-36.202 80.452-80.452 80.452H137.016c-44.248 0-80.452-36.202-80.452-80.452V146.196c0-44.248 36.204-80.452 80.452-80.452h588.302c44.248 0 80.452 36.204 80.452 80.452v101.948c0 15.588 12.696 28.284 28.284 28.284s28.284-12.696 28.284-28.284v-113.26c0-69.138-56.568-125.706-125.706-125.706H125.702C56.564 9.178-0.004 65.746-0.004 134.884V889.12c0 69.138 56.568 125.706 125.706 125.706h610.93c69.138 0 125.706-56.568 125.706-125.706v-113.26c0-15.462-12.822-28.284-28.284-28.284z" p-id="10887"></path><path d="M738.016 457.444c-13.198 0-24.01 10.81-24.01 24.136s10.684 24.136 24.01 24.136c13.198 0 24.01-10.81 24.01-24.136s-10.812-24.136-24.01-24.136zM831.542 457.444c-13.198 0-24.01 10.81-24.01 24.136s10.684 24.136 24.01 24.136 24.01-10.81 24.01-24.136c-0.126-13.324-10.812-24.136-24.01-24.136zM898.418 481.58c0.35-13.058 10.962-23.508 24.002-23.508 13.26 0 24.01 10.806 24.01 24.136s-10.75 24.136-24.01 24.136c-13.042 0-23.654-10.45-24-23.474z" p-id="10888"></path><path d="M1023.996 351.348c-1.006-20.364-17.726-36.58-38.216-36.58H672.27c-20.364 0-37.082 16.216-38.216 36.58v263.48c0 21.244 17.096 38.466 38.216 38.466h101.57l47.644 40.476 0.126 0.126c0.126 0.126 0.25 0.126 0.376 0.25s0.376 0.25 0.504 0.376c0.126 0.126 0.25 0.126 0.376 0.25s0.376 0.25 0.504 0.25c0.126 0.126 0.25 0.126 0.504 0.25 0.126 0.126 0.376 0.126 0.504 0.25s0.376 0.126 0.504 0.25c0.126 0.126 0.376 0.126 0.504 0.25 0.126 0 0.25 0.126 0.504 0.126s0.376 0.126 0.63 0.126c0.126 0 0.25 0.126 0.504 0.126s0.504 0.126 0.63 0.126h2.764c0.25 0 0.504 0 0.63-0.126 0.126 0 0.25-0.126 0.504-0.126s0.376-0.126 0.63-0.126c0.126 0 0.25-0.126 0.504-0.126a0.972 0.972 0 0 0 0.504-0.25c0.126 0 0.376-0.126 0.504-0.25s0.376-0.126 0.504-0.25c0.126-0.126 0.25-0.126 0.504-0.25a0.944 0.944 0 0 1 0.504-0.25c0.126-0.126 0.25-0.126 0.376-0.25s0.376-0.25 0.504-0.376c0.126-0.126 0.25-0.126 0.376-0.25l0.126-0.126 47.644-40.476h101.57c21.12 0 38.214-17.222 38.214-38.466V353.36v-2.012z m-48.774 238.338c0 8.172-6.538 14.708-14.582 14.708 0 0-93.4 1.256-95.536 3.394l-36.078 30.294-36.078-30.294c-2.264-2.136-95.536-3.394-95.536-3.394-8.044 0-14.582-6.662-14.582-14.708V378.5c0-8.17 6.538-14.708 14.582-14.708H960.64c8.044 0 14.582 6.662 14.582 14.708v211.186zM669.254 240.098c0-15.588-12.696-28.284-28.284-28.284H151.85c-15.588 0-28.284 12.696-28.284 28.284s12.696 28.284 28.284 28.284h489.12c15.588 0 28.284-12.696 28.284-28.284zM151.85 386.294c-15.588 0-28.284 12.696-28.284 28.284s12.696 28.284 28.284 28.284h316.904c15.588 0 28.284-12.696 28.284-28.284s-12.696-28.284-28.284-28.284H151.85z" p-id="10889"></path></svg>