<?xml version="1.0" standalone="no"?><!DOCTYPE svg PUBLIC "-//W3C//DTD SVG 1.1//EN" "http://www.w3.org/Graphics/SVG/1.1/DTD/svg11.dtd"><svg t="1516189144782" class="icon" style="" viewBox="0 0 1024 1024" version="1.1" xmlns="http://www.w3.org/2000/svg" p-id="11258" xmlns:xlink="http://www.w3.org/1999/xlink" width="200" height="200"><defs><style type="text/css"></style></defs><path d="M657.124 238.844c-12.418-12.484-32.776-12.484-45.26 0L366.874 483.896c-7.682 7.682-10.05 18.18-8.258 28.104-1.792 9.922 0.576 20.422 8.258 28.102l244.924 244.99c12.482 12.482 32.84 12.482 45.26 0 12.482-12.418 12.482-32.776 0-45.26L429.288 512 657.12 284.104c12.482-12.484 12.482-32.712 0-45.26zM512.064 0C229.242 0 0 229.242 0 512c0 282.694 229.242 512 512.064 512C794.76 1024 1024 794.694 1024 512 1024 229.24 794.76 0 512.064 0z m0 959.984C264.578 959.984 64.016 759.358 64.016 512c0-247.422 200.562-448.048 448.048-448.048 247.23 0 447.92 200.562 447.92 448.048 0 247.358-200.69 447.984-447.92 447.984z" p-id="11259"></path></svg>