<?xml version="1.0" standalone="no"?><!DOCTYPE svg PUBLIC "-//W3C//DTD SVG 1.1//EN" "http://www.w3.org/Graphics/SVG/1.1/DTD/svg11.dtd"><svg t="1516189027603" class="icon" style="" viewBox="0 0 1024 1024" version="1.1" xmlns="http://www.w3.org/2000/svg" p-id="10023" xmlns:xlink="http://www.w3.org/1999/xlink" width="200" height="200"><defs><style type="text/css"></style></defs><path d="M319.998 831.998c17.688 0 32-14.312 32-32V448c0-17.688-14.312-32-32-32s-32 14.312-32 32v352c0 17.688 14.312 32 32 32z m192.002 0c17.688 0 32-14.312 32-32V448c0-17.688-14.312-32-32-32s-32 14.312-32 32v352c0 17.688 14.312 32 32 32z m192 0c17.688 0 32-14.312 32-32V448c0-17.688-14.312-32-32-32s-32 14.312-32 32v352c0 17.688 14.312 32 32 32z m159.998-736h-132.53c-14.312-55.062-64-96-123.47-96h-192c-59.468 0-109.156 40.938-123.468 96H160c-70.594 0-128 57.438-128 128V256h32v32h64v608c0 70.562 57.408 128 128 128h512c70.596 0 128-57.438 128-128V288h64v-32h32v-32.002C992 153.436 934.596 96 864 96zM415.998 64h192c23.562 0 44 12.97 55.094 32H360.906c11.096-19.032 31.532-32 55.094-32z m415.998 831.998c0 35.312-28.718 64-64 64h-512c-35.282 0-68.438-28.688-68.438-64l4.438-608h640v608z m-735.998-672c0-35.312 28.72-64 64-64h704c35.284 0 64 28.688 64 64h-832z" p-id="10024"></path></svg>