<?xml version="1.0" standalone="no"?><!DOCTYPE svg PUBLIC "-//W3C//DTD SVG 1.1//EN" "http://www.w3.org/Graphics/SVG/1.1/DTD/svg11.dtd"><svg t="1516189168902" class="icon" style="" viewBox="0 0 1024 1024" version="1.1" xmlns="http://www.w3.org/2000/svg" p-id="11504" xmlns:xlink="http://www.w3.org/1999/xlink" width="200" height="200"><defs><style type="text/css"></style></defs><path d="M512 1024C229.216 1024 0 794.784 0 512S229.216 0 512 0s512 229.216 512 512-229.216 512-512 512z m0-959.488C264.608 64.512 64.064 264.864 64.064 512S264.608 959.488 512 959.488c247.392 0 447.936-200.352 447.936-447.488S759.392 64.512 512 64.512z m77.824 358.784h82.88c17.664 0 32 14.336 32 32v0.512c0 17.664-14.336 32-32 32h-128.16v96.768h128.16c17.664 0 32 14.304 32 32v0.48c0 17.696-14.336 32-32 32h-128.16v161.536c0 17.664-14.336 32-32 32h-0.064c-17.696 0-32-14.336-32-32v-161.536h-128.16c-17.696 0-32-14.304-32-32v-0.48c0-17.696 14.304-32 32-32h128.16v-96.768h-128.16c-17.696 0-32-14.336-32-32v-0.512c0-17.664 14.304-32 32-32h82.848l-109.344-110.112c-12.512-12.576-12.512-33.024 0-45.6 12.48-12.608 32.768-12.608 45.28 0l135.904 136.832c2.432 2.464 4.192 5.28 5.568 8.256 1.472-2.912 3.008-5.824 5.408-8.256l135.904-136.832a31.87 31.87 0 0 1 45.312 0c12.512 12.576 12.512 33.024 0 45.6l-109.376 110.112z" p-id="11505"></path></svg>