<?xml version="1.0" standalone="no"?><!DOCTYPE svg PUBLIC "-//W3C//DTD SVG 1.1//EN" "http://www.w3.org/Graphics/SVG/1.1/DTD/svg11.dtd"><svg t="1516188985834" class="icon" style="" viewBox="0 0 1024 1024" version="1.1" xmlns="http://www.w3.org/2000/svg" p-id="9777" xmlns:xlink="http://www.w3.org/1999/xlink" width="200" height="200"><defs><style type="text/css"></style></defs><path d="M513.418 28.364c-36.876 0-70.914 14.182-96.442 42.548L28.366 487.888C5.674 513.416 0.002 547.456 11.348 578.658c14.182 31.202 45.386 51.058 76.588 51.058h22.692v266.638c0 53.894 45.386 99.28 99.28 99.28h130.482c53.894 0 99.28-45.386 99.28-99.28v-102.116h144.664v102.116c0 53.894 45.386 99.28 99.28 99.28h130.482c53.894 0 99.28-45.386 99.28-99.28V629.716h22.692c34.038 0 65.24-19.856 76.586-51.058s8.51-68.078-17.02-90.77L607.024 70.912c-19.856-28.364-56.732-42.548-93.606-42.548z" p-id="9778"></path></svg>