<?xml version="1.0" standalone="no"?><!DOCTYPE svg PUBLIC "-//W3C//DTD SVG 1.1//EN" "http://www.w3.org/Graphics/SVG/1.1/DTD/svg11.dtd"><svg t="1516188929745" class="icon" style="" viewBox="0 0 1024 1024" version="1.1" xmlns="http://www.w3.org/2000/svg" p-id="9407" xmlns:xlink="http://www.w3.org/1999/xlink" width="200" height="200"><defs><style type="text/css"></style></defs><path d="M924.526 42.424H99.474C43.886 42.424 0 86.31 0 141.898v611.476c0 55.588 43.886 99.474 99.474 99.474h383.27v70.216h-190.172c-17.554 0-29.258 14.63-29.258 29.256s14.63 29.256 29.258 29.256h438.858c17.554 0 29.256-14.63 29.256-29.256s-14.63-29.256-29.256-29.256h-190.172v-70.216h383.27c55.588 0 99.474-43.886 99.474-99.474V141.898c0-52.662-43.886-99.474-99.474-99.474zM512 732.892c-155.062 0-283.794-128.732-283.794-283.794S356.938 165.304 512 165.304s283.794 128.732 283.794 283.794S669.988 732.892 512 732.892z m90.698-228.204c-2.926-8.778-5.85-20.48-11.702-29.258-2.926-5.85-8.778-8.778-14.63-5.85s-5.85 8.778-5.85 14.63c2.926 5.85 2.926 8.778 5.85 11.702h-55.588v-52.664h58.514c5.85 0 8.778-2.926 11.702-11.702 0-8.778-2.926-11.702-11.702-11.702h-58.514v-32.182h64.366c5.85 0 8.778-2.926 8.778-11.702 0-5.85-2.926-11.702-8.778-11.702h-137.508c-8.778 0-11.702 2.926-11.702 11.702s2.926 11.702 11.702 11.702h49.738v32.182h-46.812c-5.85 0-8.778 2.926-11.702 11.702 0 8.778 2.926 11.702 11.702 11.702h46.812v52.664H438.86c-5.85 0-11.702 2.926-11.702 11.702s5.85 11.704 11.702 11.704h155.062c5.85 0 5.85-2.926 8.778-5.85v-8.778c0 2.926 0 2.926 0 0z m20.48-184.322H409.602c-14.63-2.926-20.48 5.85-17.554 20.48v207.726c0 17.554 5.85 23.404 20.48 23.404H623.18c14.63 0 20.48-5.85 20.48-23.404V340.846c-2.926-14.63-8.778-20.48-20.48-20.48z m-5.852 216.504c0 8.778-2.926 11.702-11.702 11.702h-178.468c-8.778 0-14.63-2.926-11.702-11.702v-181.394c0-8.778 2.926-14.63 11.702-11.702h178.468c8.778 0 14.63 5.85 11.702 17.554v175.544z" p-id="9408"></path></svg>