<?xml version="1.0" standalone="no"?><!DOCTYPE svg PUBLIC "-//W3C//DTD SVG 1.1//EN" "http://www.w3.org/Graphics/SVG/1.1/DTD/svg11.dtd"><svg t="1516188742775" class="icon" style="" viewBox="0 0 1024 1024" version="1.1" xmlns="http://www.w3.org/2000/svg" p-id="8669" xmlns:xlink="http://www.w3.org/1999/xlink" width="200" height="200"><defs><style type="text/css"></style></defs><path d="M399.132 188.116C179.938 188.116 0 364.78 0 583.974s179.936 395.858 399.132 395.858 399.132-176.664 399.132-395.858c0-215.924-179.936-395.858-399.132-395.858z m104.69 264.996c-9.814 16.358-29.444 6.544-29.444 6.544-13.086-6.544-35.988-19.63-75.246-19.63-45.802 0-62.16 26.172-62.16 52.344 0 32.716 22.902 45.802 75.246 68.702 62.16 26.172 94.876 55.616 94.876 111.234 0 49.074-32.716 91.604-94.876 101.418v35.986c0 9.816-9.814 19.63-19.63 19.63s-19.63-9.816-19.63-19.63v-32.716c-35.988 0-71.976-9.816-91.604-26.172 0 0-26.172-16.358-13.086-35.986 9.814-19.63 29.444-6.544 29.444-6.544 22.902 13.086 52.346 26.172 85.062 26.172 42.53 0 71.976-26.172 71.976-58.89s-22.902-52.346-68.702-71.976c-62.16-22.9-98.146-52.346-98.146-104.69 0-49.074 35.988-88.332 91.604-98.146v-32.716c0-9.814 9.814-19.63 19.63-19.63s19.63 9.814 19.63 19.63v29.444c35.988 0 58.89 9.814 78.516 19.63-6.544 0 19.63 13.086 6.544 35.988z m245.366-163.578c9.816 0 22.9-3.272 32.716-3.272 29.444-3.272 58.89-9.814 85.062-16.358 19.63-3.272 39.26-9.814 55.616-16.358s32.716-13.086 42.53-19.63c13.086-6.544 26.172-16.358 35.986-22.902 16.358-13.086 22.9-29.444 22.9-42.53 0-52.344-98.148-98.148-242.096-114.504-22.9-3.272-49.074-6.544-75.246-6.544-26.172-3.272-52.346-3.272-81.79-3.272-68.702 0-134.134 6.544-193.022 16.358-16.358 3.272-29.444 6.544-45.802 9.814-94.876 22.9-153.764 55.616-160.306 94.876 52.344-22.902 111.234-35.986 173.394-35.986 140.676 0 264.998 62.16 350.058 160.306z m245.37 435.12c-9.816-6.544-19.63-13.086-32.716-19.63-39.26 16.358-85.062 26.172-130.862 35.986-19.63 55.616-52.346 107.962-91.604 150.492 13.086 0 26.172-3.27 39.26-3.27 143.95-19.63 242.096-62.16 242.096-114.504 0-9.816-3.27-19.63-9.816-26.172-3.27-9.816-6.544-16.358-16.358-22.9z m-32.716-219.196c-32.716 13.086-68.702 22.902-107.962 32.716 0 6.544 3.27 29.444 3.27 49.074 0 29.444-3.27 58.89-9.816 88.332 3.27 0 9.816-3.27 16.358-3.27 19.63-3.27 39.26-9.816 55.616-16.358s32.716-13.086 42.53-19.63c13.086-6.544 26.172-16.358 35.986-22.9 16.358-13.086 22.9-29.444 22.9-42.53 0-9.816-3.27-19.63-9.816-26.172-6.544-16.358-26.172-29.444-49.074-39.26z m0-202.838c-49.074 19.63-107.962 32.716-173.394 42.53 22.9 39.26 42.53 81.79 55.616 127.592 6.544 0 13.086-3.272 19.63-3.272 19.63-3.272 39.26-9.814 55.616-16.358s32.716-13.086 42.53-19.63c13.086-6.544 26.172-16.358 35.986-22.902 16.358-13.086 22.9-29.444 22.9-42.53 0-16.358-9.816-29.444-22.9-42.53-9.816-6.544-19.63-16.358-35.986-22.902z m-104.692 232.282c0-3.27 0-3.27 0 0z" p-id="8670"></path></svg>