<?xml version="1.0" standalone="no"?><!DOCTYPE svg PUBLIC "-//W3C//DTD SVG 1.1//EN" "http://www.w3.org/Graphics/SVG/1.1/DTD/svg11.dtd"><svg t="1516188935946" class="icon" style="" viewBox="0 0 1024 1024" version="1.1" xmlns="http://www.w3.org/2000/svg" p-id="9530" xmlns:xlink="http://www.w3.org/1999/xlink" width="200" height="200"><defs><style type="text/css"></style></defs><path d="M924.524 42.424H99.472c-55.588 0-99.474 43.886-99.474 99.474v611.476c0 55.588 43.886 99.474 99.474 99.474h383.27v70.216h-190.172c-17.554 0-29.258 14.63-29.258 29.256s14.63 29.256 29.258 29.256h438.858c17.554 0 29.256-14.63 29.256-29.256s-14.63-29.256-29.256-29.256h-190.172v-70.216h383.27c55.588 0 99.474-43.886 99.474-99.474V141.898c0-52.662-43.886-99.474-99.474-99.474zM512 732.894c-155.062 0-283.794-128.732-283.794-283.794S356.938 165.306 512 165.306s283.794 128.732 283.794 283.794C798.72 604.162 669.988 732.894 512 732.894z" p-id="9531"></path><path d="M497.37 314.514c8.778-11.702 17.554-11.702 26.332 0v20.48h122.88c5.85 0 11.702 5.85 11.702 11.702-2.926 8.778-5.85 11.702-11.702 11.702h-119.954v35.108h87.77c14.63 2.926 23.404 11.702 26.332 29.258v114.102c-5.85 29.256-32.182 35.108-84.846 20.48-5.85-2.926-8.778-5.85-8.778-11.702 2.926-5.85 5.85-8.778 14.63-5.85 35.108 11.702 52.664 5.85 58.514-11.702v-96.548c0-8.778-2.926-11.702-11.702-11.702h-78.994v155.062c0 5.85-5.85 11.702-11.702 11.702-8.778 0-11.702-5.85-11.702-11.702v-155.062H438.86c-11.702 0-17.554 2.926-17.554 11.702v122.88c0 8.778-2.926 11.702-11.702 11.702s-11.702-5.85-11.702-11.702v-131.658c0-20.48 8.778-29.258 26.332-29.258h78.994V358.4H386.2c-5.85 0-8.778-5.85-11.702-11.702 0-5.85 2.926-11.702 11.702-11.702h117.028v-20.48h-5.85z" p-id="9532"></path></svg>