<?xml version="1.0" standalone="no"?><!DOCTYPE svg PUBLIC "-//W3C//DTD SVG 1.1//EN" "http://www.w3.org/Graphics/SVG/1.1/DTD/svg11.dtd"><svg t="1516188827102" class="icon" style="" viewBox="0 0 1072 1024" version="1.1" xmlns="http://www.w3.org/2000/svg" p-id="9161" xmlns:xlink="http://www.w3.org/1999/xlink" width="209.375" height="200"><defs><style type="text/css"></style></defs><path d="M966.968 20.868H104.04c-58.14 0-104.04 45.9-104.04 104.04v639.546c0 58.14 45.902 104.042 104.04 104.042h400.862v73.442h-198.902c-18.36 0-30.6 15.3-30.6 30.6s15.3 30.6 30.6 30.6H765.004c18.36 0 30.6-15.3 30.6-30.6s-15.3-30.6-30.6-30.6h-198.902v-73.442h400.864c58.142 0 104.04-45.9 104.04-104.04V124.91c0-55.082-45.902-104.04-104.04-104.04zM535.504 743.034c-162.182 0-296.822-134.642-296.822-296.822S373.324 149.39 535.504 149.39s296.822 134.642 296.822 296.822S700.744 743.034 535.504 743.034z m-21.42-232.562c0-6.12-3.06-9.18-9.18-9.18h-67.32c-6.12 0-9.18 3.06-12.24 9.18 0 6.12 3.06 9.18 9.18 9.18h21.42v42.842c0 6.12 3.06 9.18 12.24 9.18 6.12 0 9.18-3.06 9.18-9.18v-42.842h27.54c6.12 0 9.18-3.06 9.18-9.18z m18.362-208.082H413.104c-9.18 0-12.24 3.06-12.24 9.18s3.06 12.24 12.24 12.24h119.342c6.12 0 12.24-3.06 12.24-12.24 0-6.12-6.12-9.18-12.24-9.18z m-24.482 94.86c12.24 0 21.42-6.12 18.36-21.42v-21.42c0-12.24-6.12-21.42-18.36-18.36h-79.562c-12.24 0-18.36 6.12-18.36 18.36v21.42c0 15.3 6.12 21.42 18.36 21.42h79.562z m-76.5-33.66c0-6.12 3.06-6.12 6.12-6.12h61.202c6.12 0 6.12 0 6.12 6.12v6.12c0 6.12 0 6.12-6.12 6.12H437.584c-6.12 0-6.12-3.06-6.12-12.24z m85.68 52.02h-97.92c-15.3 0-21.42 6.12-21.42 18.36v134.642c0 6.12 3.06 9.18 12.24 9.18 6.12 0 9.18-3.06 9.18-9.18v-125.462c0-6.12 3.06-9.18 9.18-9.18h15.3c0 15.3-6.12 30.6-12.24 42.842-3.06 6.12-3.06 9.18 0 15.3 6.12 3.06 9.18 3.06 15.3-3.06 9.18-12.24 15.3-30.6 18.36-52.022h18.36v33.66c0 9.18 6.12 15.3 18.36 18.36h24.48v61.202c0 6.12-6.12 9.18-21.42 3.06-6.12-3.06-12.24 0-12.24 6.12s3.06 12.24 6.12 12.24c30.6 9.18 45.902 3.06 48.96-18.36v-113.222c-3.06-18.36-12.24-24.48-30.6-24.48z m6.12 52.02h-15.3c-6.12 0-9.18-3.06-9.18-9.18v-21.42h18.36c3.06 0 6.12 3.06 6.12 6.12v24.48z m125.462 30.6c-6.12 3.06-9.18 9.18-6.12 15.3l9.18 27.54-27.54 3.06v-64.26h30.6c12.24 0 15.3-6.12 15.3-18.36v-110.162c0-12.24-6.12-18.36-18.36-18.36h-27.54v-24.48c0-6.12-3.06-12.24-12.24-12.24s-12.24 6.12-12.24 12.24v24.48h-27.54c-12.24 0-18.36 6.12-18.36 18.36v113.222c0 12.24 6.12 18.36 21.42 18.36h24.48v67.32c-24.48 3.06-39.78 3.06-39.78 3.06-9.18 3.06-12.24 6.12-12.24 12.24 3.06 6.12 6.12 9.18 15.3 9.18 3.06 0 33.66-3.06 94.86-12.24 3.06 9.18 6.12 15.3 6.12 18.36 3.06 6.12 6.12 9.18 12.24 6.12s9.18-6.12 9.18-12.24c-3.06-18.36-9.18-39.78-21.42-67.322-3.06-6.12-9.18-9.18-15.3-9.18z m-24.48-143.82h15.3c6.12 0 9.18 3.06 9.18 9.18v88.74c0 6.12-3.06 6.12-6.12 6.12h-18.36v-104.04z m-21.42 104.04h-18.36c-6.12 0-9.18 0-6.12-6.12v-85.68c0-6.12 3.06-9.18 9.18-9.18h15.3v100.98z" p-id="9162"></path></svg>