<?xml version="1.0" standalone="no"?><!DOCTYPE svg PUBLIC "-//W3C//DTD SVG 1.1//EN" "http://www.w3.org/Graphics/SVG/1.1/DTD/svg11.dtd"><svg t="1516188917075" class="icon" style="" viewBox="0 0 1024 1024" version="1.1" xmlns="http://www.w3.org/2000/svg" p-id="9284" xmlns:xlink="http://www.w3.org/1999/xlink" width="200" height="200"><defs><style type="text/css"></style></defs><path d="M995.292 931.49L771.99 437.036h162.692c35.09 0 63.802-28.71 63.802-63.8 0-22.33-12.76-41.47-28.71-54.23L551.88 12.764c-9.572-9.57-25.52-12.76-38.28-12.76s-28.71 3.19-38.282 12.76L54.234 322.196c-22.33 15.95-31.9 47.85-22.33 73.37s31.9 44.662 60.61 44.662h162.692L31.904 934.684c-9.57 19.14-6.38 44.662 3.192 60.61 12.76 19.14 31.9 28.71 54.23 28.71h845.358c22.33 0 41.47-12.76 54.23-28.71 12.76-22.33 12.76-44.662 6.38-63.802zM612.488 542.304c-9.572 15.95-28.71 6.38-28.71 6.38-12.76-6.38-35.09-19.14-73.37-19.14-44.662 0-60.61 25.52-60.61 51.042 0 31.9 22.33 44.662 73.37 66.99 60.61 25.52 92.51 54.23 92.51 108.462 0 47.85-31.9 89.32-92.51 98.89v35.09c0 9.572-9.572 19.14-19.14 19.14s-19.14-9.572-19.14-19.14v-31.9c-35.09 0-70.18-9.572-89.32-25.52 0 0-25.52-15.95-12.76-35.09 9.572-19.14 28.71-6.38 28.71-6.38 22.33 12.76 51.04 25.52 82.942 25.52 41.47 0 70.182-25.52 70.182-57.422s-22.33-51.042-66.99-70.182c-60.61-22.33-95.7-51.042-95.7-102.082 0-47.85 35.09-86.13 89.32-95.7v-31.9c0-9.572 9.572-19.14 19.14-19.14s19.14 9.572 19.14 19.14v28.71c35.09 0 57.422 9.572 76.562 19.14-6.38 3.19 19.14 15.95 6.38 35.09z" p-id="9285"></path></svg>