<?xml version="1.0" standalone="no"?><!DOCTYPE svg PUBLIC "-//W3C//DTD SVG 1.1//EN" "http://www.w3.org/Graphics/SVG/1.1/DTD/svg11.dtd"><svg t="1516189129633" class="icon" style="" viewBox="0 0 1024 1024" version="1.1" xmlns="http://www.w3.org/2000/svg" p-id="11134" xmlns:xlink="http://www.w3.org/1999/xlink" width="200" height="200"><defs><style type="text/css"></style></defs><path d="M1009.828 542.048L538.33 70.57a36.16 36.16 0 0 0-12.816-8.278c-13.136-5.398-28.8-2.768-39.472 7.904L14.172 542.046C0 556.216 0 579.194 14.172 593.364c14.172 14.172 37.148 14.172 51.32 0L512 146.876l446.508 446.488c14.172 14.172 37.148 14.172 51.32 0 14.172-14.17 14.172-37.148 0-51.318z" p-id="11135"></path><path d="M805.332 557.122c-20.042 0-36.288 16.246-36.288 36.288v301.122H254.642V593.408c0-20.042-16.248-36.288-36.288-36.288s-36.288 16.246-36.288 36.288v337.41c0 19.416 15.248 35.268 34.422 36.24 0.618 0.032 1.242 0.048 1.868 0.048h586.98a38.152 38.152 0 0 0 7.312-0.736 36.166 36.166 0 0 0 15.138-7.052 36.354 36.354 0 0 0 3.21-2.84c0.12-0.12 0.234-0.246 0.352-0.37a36.314 36.314 0 0 0 3.068-3.578l0.024-0.032a36.294 36.294 0 0 0 4.334-7.554c0.092-0.216 0.17-0.438 0.258-0.654 0.152-0.38 0.304-0.758 0.444-1.144a37.44 37.44 0 0 0 1.504-5.522c0.418-2.204 0.648-4.476 0.648-6.802V593.41c-0.002-20.04-16.25-36.288-36.292-36.288z" p-id="11136"></path></svg>