<?xml version="1.0" standalone="no"?><!DOCTYPE svg PUBLIC "-//W3C//DTD SVG 1.1//EN" "http://www.w3.org/Graphics/SVG/1.1/DTD/svg11.dtd"><svg t="1516188817930" class="icon" style="" viewBox="0 0 1024 1024" version="1.1" xmlns="http://www.w3.org/2000/svg" p-id="9038" xmlns:xlink="http://www.w3.org/1999/xlink" width="200" height="200"><defs><style type="text/css"></style></defs><path d="M944.148 751.558l-156.576-281.834c-43.842-81.418-128.392-128.392-219.206-128.392H452.5c-90.812 0-175.364 50.104-219.206 128.392L76.718 751.558c-31.314 56.366-31.314 125.26 3.132 181.626s90.814 90.812 156.576 90.812H784.44c65.76 0 125.26-34.446 156.576-90.812 34.446-56.366 37.578-125.26 3.13-181.626z m-325.676-197.284c-9.394 15.658-28.184 6.264-28.184 6.264-12.524-6.264-34.446-18.788-72.024-18.788-43.842 0-59.498 25.052-59.498 50.104 0 31.316 21.92 43.842 72.026 65.76 59.498 25.052 90.812 53.236 90.812 106.472 0 46.972-31.316 87.682-90.812 97.076v34.446c0 9.394-9.394 18.788-18.788 18.788s-18.788-9.394-18.788-18.788v-31.316c-34.446 0-68.894-9.394-87.682-25.052 0 0-25.052-15.658-12.524-34.446 9.394-18.788 28.184-6.264 28.184-6.264 21.92 12.524 50.104 25.052 81.418 25.052 40.71 0 68.892-25.052 68.892-56.366s-21.922-50.104-65.76-68.894C446.246 676.4 411.8 648.218 411.8 598.114c0-46.972 34.446-84.552 87.682-93.944v-31.314c0-9.394 9.394-18.788 18.79-18.788s18.788 9.394 18.788 18.788v28.184c34.446 0 56.366 9.394 75.156 18.79-6.264 0 18.788 12.524 6.264 34.446zM352.294 169.098c21.92 40.71 62.63 65.76 109.604 65.76h103.34c46.972 0 87.682-25.052 109.602-65.76l34.446-65.76c12.524-21.92 12.524-46.972-3.13-68.894-12.524-21.92-34.446-34.446-59.498-34.446H380.48c-25.052 0-46.974 12.526-59.498 34.446s-12.524 46.972-3.13 68.894l34.446 65.76z" p-id="9039"></path></svg>