<?xml version="1.0" standalone="no"?><!DOCTYPE svg PUBLIC "-//W3C//DTD SVG 1.1//EN" "http://www.w3.org/Graphics/SVG/1.1/DTD/svg11.dtd"><svg t="1516189155707" class="icon" style="" viewBox="0 0 1024 1024" version="1.1" xmlns="http://www.w3.org/2000/svg" p-id="11381" xmlns:xlink="http://www.w3.org/1999/xlink" width="200" height="200"><defs><style type="text/css"></style></defs><path d="M975.384 981.424c0 23.138-18.744 41.882-41.864 41.882-23.138 0-41.882-18.744-41.882-41.882l-0.376-3.888c0-1.654 0.3-3.25 0.47-4.884-26.144-183.81-183.736-318.884-375.62-321.006-1.54 0.038-3.004 0.246-4.564 0.246-1.522 0-2.986-0.206-4.508-0.246-189.688 2.102-345.778 134.19-374.55 314.808 0.956 3.55 1.634 7.212 1.634 11.062l0.396 3.944c0 23.496-19.044 42.538-42.52 42.538s-42.54-19.044-42.54-42.538l-0.036-0.376h-0.808c0.112-1.24 0.356-2.424 0.488-3.644 0-3.514 0.564-6.836 1.352-10.104 21.806-169.462 135.354-306.468 289.904-365.48-89.98-57.658-148.652-159.526-148.652-275.912 0-180.016 139.862-325.946 319.88-325.946 179.998 0 319.88 145.93 319.88 325.946 0 116.348-58.616 218.2-148.558 275.856 153.48 58.54 266.524 193.952 289.548 361.724 1.558 4.394 2.592 9.072 2.592 14.01l0.338 3.888zM757.918 326.038c0-136.106-110.318-246.426-246.428-246.426S265.062 189.95 265.062 326.038c0 136.086 110.338 246.408 246.428 246.408s246.428-110.32 246.428-246.408z" p-id="11382"></path></svg>