<?xml version="1.0" standalone="no"?><!DOCTYPE svg PUBLIC "-//W3C//DTD SVG 1.1//EN" "http://www.w3.org/Graphics/SVG/1.1/DTD/svg11.dtd"><svg t="1516189096529" class="icon" style="" viewBox="0 0 1024 1024" version="1.1" xmlns="http://www.w3.org/2000/svg" p-id="10639" xmlns:xlink="http://www.w3.org/1999/xlink" width="200" height="200"><defs><style type="text/css"></style></defs><path d="M881.449278 472.995076H225.09456V340.619335c0-158.88569 129.289747-288.143437 288.215437-288.143437 158.91769 0 288.195437 129.257748 288.195438 288.143437 0 14.493972 11.743977 26.237949 26.237948 26.237948s26.237949-11.743977 26.237949-26.237948C853.981332 152.799702 701.151631 0 513.309997 0 325.458364 0 172.618663 152.799702 172.618663 340.619335v132.375741H142.570722c-43.931914 0-79.667844 35.75793-79.667845 79.699845v391.699234c0 43.899914 35.73593 79.605845 79.667845 79.605845h738.878556c43.921914 0 79.647844-35.70393 79.647845-79.605845v-391.699234c0-43.941914-35.72593-79.699844-79.647845-79.699845z m27.171947 471.397079c0 14.965971-12.183976 27.129947-27.171947 27.129947H142.570722c-14.997971 0-27.191947-12.163976-27.191947-27.129947v-391.699234c0-15.019971 12.205976-27.223947 27.191947-27.223947h738.878556c14.985971 0 27.171947 12.205976 27.171947 27.223947v391.699234zM512.827998 641.134748c-27.601946 0-50.049902 22.437956-50.049902 50.071902 0 19.815961 11.649977 36.817928 28.367945 44.929912v95.821813c0 12.047976 9.687981 21.735958 21.681957 21.735958a21.673958 21.673958 0 0 0 21.713958-21.735958v-95.821813c16.739967-8.101984 28.367945-25.115951 28.367945-44.929912 0-27.633946-22.407956-50.071902-50.081903-50.071902z" p-id="10640"></path></svg>