<?xml version="1.0" standalone="no"?><!DOCTYPE svg PUBLIC "-//W3C//DTD SVG 1.1//EN" "http://www.w3.org/Graphics/SVG/1.1/DTD/svg11.dtd"><svg t="1516189080065" class="icon" style="" viewBox="0 0 1024 1024" version="1.1" xmlns="http://www.w3.org/2000/svg" p-id="10392" xmlns:xlink="http://www.w3.org/1999/xlink" width="200" height="200"><defs><style type="text/css"></style></defs><path d="M839.82136 1023.998H184.17864c-73.235857 0-132.605741-59.367884-132.605741-132.605741V565.594895c0-73.235857 59.369884-132.605741 132.605741-132.605741v-110.091785C184.17864 139.809727 328.912358 0 512 0s327.82136 139.807727 327.82136 322.897369v110.091785c73.235857 0 132.605741 59.369884 132.605741 132.605741v325.799364c0 73.237857-59.369884 132.605741-132.605741 132.605741z m-56.897889-701.100631c0-146.469714-124.451757-266.00148-270.925471-266.00148S241.072529 176.429655 241.072529 322.897369v110.091785h541.848942v-110.091785z m132.603741 242.697526c0-36.615928-39.089924-75.709852-75.709852-75.709852H184.17464c-36.617928 0-75.709852 39.093924-75.709852 75.709852v325.799364c0 36.617928 39.089924 79.401845 75.709852 79.401845h655.64272c36.617928 0 75.709852-42.783916 75.709852-79.401845v-325.799364zM528.573968 894.232253h-33.151936a16.575968 16.575968 0 0 1-16.573967-16.575967V603.890821a16.575968 16.575968 0 0 1 16.573967-16.575968h33.151936a16.573968 16.573968 0 0 1 16.575967 16.575968v273.763465a16.575968 16.575968 0 0 1-16.575967 16.575967z" p-id="10393"></path></svg>