<?xml version="1.0" standalone="no"?><!DOCTYPE svg PUBLIC "-//W3C//DTD SVG 1.1//EN" "http://www.w3.org/Graphics/SVG/1.1/DTD/svg11.dtd"><svg t="1516188949014" class="icon" style="" viewBox="0 0 1024 1024" version="1.1" xmlns="http://www.w3.org/2000/svg" p-id="9654" xmlns:xlink="http://www.w3.org/1999/xlink" width="200" height="200"><defs><style type="text/css"></style></defs><path d="M512 0C229.234 0 0.022 229.222 0.022 512S229.234 1024 512 1024s511.98-229.222 511.98-512S794.768 0 512 0z m281.886 671.572c-13.222 12.342-35.924-1.102-57.744-31.298a330.266 330.266 0 0 1-36.144 70.308c30.856 11.02 50.692 28.212 50.692 47.608 0 33.5-59.288 60.61-132.458 60.61-43.418 0-81.768-9.476-106.01-24.244-24.024 14.768-62.594 24.244-106.01 24.244-73.172 0-132.458-27.11-132.458-60.61 0-19.174 19.836-36.586 50.692-47.608-14.546-21.158-26.668-44.742-36.144-70.308-21.82 29.976-44.52 43.64-57.744 31.298-18.074-16.972-11.24-76.922 15.646-133.784 6.17-13.004 12.782-24.684 19.614-34.822 3.746-165.304 112.622-297.988 246.18-297.988h0.442c133.558 0 242.434 132.464 246.182 297.988 6.832 10.14 13.444 21.82 19.616 34.822 26.67 56.864 33.722 116.814 15.65 133.784z" p-id="9655"></path></svg>