<?xml version="1.0" standalone="no"?><!DOCTYPE svg PUBLIC "-//W3C//DTD SVG 1.1//EN" "http://www.w3.org/Graphics/SVG/1.1/DTD/svg11.dtd"><svg t="1516189089416" class="icon" style="" viewBox="0 0 1024 1024" version="1.1" xmlns="http://www.w3.org/2000/svg" p-id="10515" xmlns:xlink="http://www.w3.org/1999/xlink" width="200" height="200"><defs><style type="text/css"></style></defs><path d="M399.06 405.332c5.02 5.02 12.548 7.528 17.57 7.528s12.548-2.51 17.57-7.528c10.038-10.038 10.038-25.098 0-35.138l-105.412-105.412c-10.038-10.038-25.098-10.038-35.138 0s-10.038 25.098 0 35.138l105.412 105.412zM624.942 405.332l105.412-105.412c10.038-10.038 10.038-25.098 0-35.138s-25.098-10.038-35.136 0l-107.922 105.412c-10.038 10.038-10.038 25.098 0 35.138 5.02 5.02 12.548 7.528 17.568 7.528s15.058-2.51 20.078-7.528zM720.314 478.118c15.058 0 25.098-12.548 25.098-25.098s-12.548-25.098-25.098-25.098H313.726c-15.06 0-25.098 12.548-25.098 25.098s12.548 25.098 25.098 25.098h173.176V576h-180.706c-15.06 0-25.098 12.548-25.098 25.098 0 15.058 12.548 25.098 25.098 25.098h180.706v153.098c0 15.058 12.548 25.098 25.098 25.098s25.098-12.548 25.098-25.098v-153.098h175.686c15.058 0 25.098-12.548 25.098-25.098 0-15.058-12.548-25.098-25.098-25.098h-175.686v-97.882h183.216z" p-id="10516"></path><path d="M77.804 490.666c15.058 0 25.098-12.548 25.098-25.098C125.49 259.764 301.178 99.138 512 99.138c203.294 0 371.452 148.078 404.078 338.824 0 0 2.51 15.06 12.548 22.588 5.02 2.51 7.528 2.51 12.548 2.51 10.038 0 17.568-5.02 22.588-12.548 2.51-5.02 60.236-107.922 45.176-210.824-2.51-15.058-15.058-22.588-27.608-22.588-15.058 2.51-22.588 15.058-22.588 27.608 5.02 37.648-2.51 77.804-12.548 110.432C885.958 176.944 715.292 46.434 511.998 46.434c-240.942 0-436.706 183.216-459.294 416.628 0 15.06 10.04 27.608 25.098 27.608zM946.196 530.822c-15.058 0-25.098 12.548-25.098 25.098C898.51 761.724 722.824 922.35 512 922.35c-203.294 0-371.452-148.078-404.078-338.824 0 0-2.51-15.058-12.55-22.588-5.02-2.51-7.528-2.51-12.55-2.51-10.04 0-17.57 5.02-22.588 12.548C57.724 575.996 0 678.898 15.058 781.8c2.51 15.058 15.058 22.588 27.608 22.588 15.058-2.51 22.588-15.058 22.588-27.608-5.02-37.648 2.51-77.804 12.55-110.432 62.746 180.706 233.412 311.216 436.706 311.216 240.942 0 436.706-183.216 459.294-416.628-2.51-17.568-12.548-30.118-27.608-30.118z" p-id="10517"></path></svg>