<?xml version="1.0" standalone="no"?><!DOCTYPE svg PUBLIC "-//W3C//DTD SVG 1.1//EN" "http://www.w3.org/Graphics/SVG/1.1/DTD/svg11.dtd"><svg t="1516188782992" class="icon" style="" viewBox="0 0 1024 1024" version="1.1" xmlns="http://www.w3.org/2000/svg" p-id="8915" xmlns:xlink="http://www.w3.org/1999/xlink" width="200" height="200"><defs><style type="text/css"></style></defs><path d="M969.452 948.212l-165.722-165.722c39.984-41.856 71.198-90.072 92.852-143.474 22.202-54.75 33.458-112.592 33.458-171.918s-11.256-117.168-33.46-171.918c-22.994-56.702-56.762-107.562-100.366-151.168s-94.464-77.374-151.168-100.368c-54.75-22.202-112.592-33.46-171.918-33.46s-117.168 11.256-171.918 33.46c-56.702 22.994-107.562 56.762-151.168 100.368s-77.374 94.464-100.368 151.168c-22.202 54.75-33.46 112.59-33.46 171.918s11.256 117.168 33.46 171.918c22.994 56.702 56.762 107.562 100.368 151.168s94.464 77.372 151.168 100.366c54.75 22.202 112.59 33.458 171.918 33.458s117.168-11.256 171.918-33.46a452.492 452.492 0 0 0 105.284-60.154l168.468 168.468 50.654-50.652z m-496.32-95.836c-102.912 0-199.664-40.076-272.432-112.846s-112.844-169.52-112.844-272.432 40.076-199.664 112.844-272.432c72.77-72.77 169.522-112.844 272.432-112.844s199.664 40.076 272.434 112.844c72.77 72.77 112.846 169.52 112.846 272.432s-40.076 199.664-112.846 272.432-169.52 112.846-272.432 112.846z" p-id="8916"></path></svg>