<?xml version="1.0" standalone="no"?><!DOCTYPE svg PUBLIC "-//W3C//DTD SVG 1.1//EN" "http://www.w3.org/Graphics/SVG/1.1/DTD/svg11.dtd"><svg t="1516189006272" class="icon" style="" viewBox="0 0 1024 1024" version="1.1" xmlns="http://www.w3.org/2000/svg" p-id="9900" xmlns:xlink="http://www.w3.org/1999/xlink" width="200" height="200"><defs><style type="text/css"></style></defs><path d="M579.568 511.584c-11.674 0-23.356 10.842-23.356 24.188 0 10.846 11.674 21.688 23.356 21.688 17.522 0 30.032-10.844 30.032-21.688 0-13.346-12.51-24.188-30.032-24.188z m-76.744-112.618c18.352 0 30.032-11.674 30.032-29.198 0-18.354-11.678-29.194-30.032-29.194-17.518 0-34.204 10.844-34.204 29.194 0 17.524 16.686 29.198 34.204 29.198zM512 0C229.226 0 0 229.228 0 512s229.228 512 512 512c282.77 0 512-229.228 512-512C1024 229.226 794.772 0 512 0z m-96.762 641.716c-30.868 0-53.392-5.002-82.586-13.346L248.4 670.918l24.196-71.746c-59.228-41.706-94.27-94.26-94.27-158.494 0-113.45 106.776-200.206 236.914-200.206 115.116 0 217.722 68.404 237.742 165.172-8.342-1.674-15.85-2.502-22.522-2.502-113.45 0-201.038 85.086-201.038 187.69 0 17.516 2.502 33.364 6.674 50.05-6.674 0.83-14.184 0.83-20.856 0.83z m347.856 81.75l16.682 60.064-63.398-35.87c-24.19 5.002-47.55 12.51-71.74 12.51-111.784 0-200.206-76.744-200.206-171.842s88.424-171.842 200.206-171.842c105.94 0 201.038 76.744 201.038 171.842 0 53.384-35.87 100.932-82.582 135.134zM337.656 340.572c-17.518 0-35.868 10.844-35.868 29.194 0 17.524 18.352 29.202 35.87 29.202 16.686 0 30.032-11.678 30.032-29.202 0-18.352-13.346-29.194-30.032-29.194z m372.886 171.012c-12.514 0-23.36 10.842-23.36 24.188 0 10.846 10.846 21.688 23.36 21.688 16.682 0 29.196-10.844 29.196-21.688 0-13.346-12.514-24.188-29.196-24.188z" p-id="9901"></path></svg>